<!-- <svg xmlns="http://www.w3.org/2000/svg" viewBox="0 0 1000 1000"
xml:space="preserve"><switch><g><circle fill="#382B73" cx="500" cy="500" r="398"/><circle
fill="#473080" cx="500" cy="500" r="344.3"/><path fill="#382B73" d="M720
345H591.9v-44c0-19.3-15.7-35-35-35H443.1c-19.3 0-35 15.7-35 35v44H280c-8.3 0-15 6.7-15 15v280c0
1.6.2 3.1.7 4.5 1.9 6.1 7.6 10.5 14.3 10.5h440c6.7 0 12.4-4.4
14.3-10.5.4-1.4.7-2.9.7-4.5V360c0-8.3-6.7-15-15-15zm-271.9-27.5V306H552v39H448.1v-27.5z"/><g><path
fill="#FEDE3A" d="M720 635H280c-8.3 0-15-6.7-15-15V340c0-8.3 6.7-15 15-15h440c8.3 0 15 6.7 15
15v280c0 8.3-6.7 15-15 15z"/><path fill="#E7AD27" d="M720 602H280c-8.3 0-15-6.7-15-15v33c0 8.3 6.7
15 15 15h440c8.3 0 15-6.7 15-15v-33c0 8.3-6.7 15-15 15z"/><path fill="#2DBBA5" d="M591.9
325h-40v-39H448.1v39h-40v-44c0-19.3 15.7-35 35-35H557c19.3 0 35 15.7 35 35v44z"/><path
fill="#00A58C" d="M408.1 297.5h40V325h-40zM551.9 297.5h40V325h-40z"/><path fill="#2DBBA5" d="M324
325h45v310h-45z"/><path fill="#00A58C" d="M324 602h45v33h-45z"/><path fill="#E7AD27" d="M369
395v45.3h-45V395c-8.1 0-14.7 6.6-14.7 14.7v31c0 8.3 6.7 15 15 15h44.3c8.3 0 15-6.7
15-15v-31c.1-8.1-6.5-14.7-14.6-14.7z"/><path fill="#00A58C" d="M369
440.3h-45v15.4H368.9v-15.4z"/><path fill="#EF5A9D" d="M369 385v45.3h-45V385c-8.1 0-14.7 6.6-14.7
14.7v31c0 8.3 6.7 15 15 15h44.3c8.3 0 15-6.7 15-15v-31c.1-8.1-6.5-14.7-14.6-14.7z"/><path
fill="#FFF" d="M346.5 437.2c-2.9 0-5.2-2.3-5.2-5.2v-23.6c0-2.9 2.3-5.2 5.2-5.2 2.9 0 5.2 2.3 5.2
5.2V432c0 2.9-2.3 5.2-5.2 5.2z"/><path fill="#D1D3D4" d="M346.5 428.2c-2.9 0-5.2-2.3-5.2-5.2v9c0 2.9
2.3 5.2 5.2 5.2 2.9 0 5.2-2.3 5.2-5.2v-9c0 2.9-2.3 5.2-5.2 5.2z"/><path fill="#00A58C" d="M324
557.5h45V580h-45zM324 516h45v22.5h-45zM324 474.5h45V497h-45zM324 342h45v22.5h-45z"/><path
fill="#A72973" d="M368.7 445.7c8.3 0 15-6.7 15-15v-31c0-8.1-6.6-14.7-14.7-14.7v.4c5.4 1.4 9.5 6.3
9.5 12.2v26.7c0 7.1-5.8 12.9-12.9 12.9h-38.1c-7.1 0-12.9-5.8-12.9-12.9v-26.7c0-5.9 4-10.8
9.5-12.2v-.4c-8.1 0-14.7 6.6-14.7 14.7v31c0 8.3 6.7 15 15 15h44.3z"/><g><path fill="#2DBBA5" d="M631
325h45v310h-45z"/><path fill="#00A58C" d="M631 602h45v33h-45z"/><path fill="#E7AD27" d="M676
395v45.3h-45V395c-8.1 0-14.7 6.6-14.7 14.7v31c0 8.3 6.7 15 15 15h44.3c8.3 0 15-6.7
15-15v-31c.1-8.1-6.5-14.7-14.6-14.7z"/><path fill="#00A58C" d="M676
440.3h-45v15.4H675.9v-15.4z"/><path fill="#EF5A9D" d="M676 385v45.3h-45V385c-8.1 0-14.7 6.6-14.7
14.7v31c0 8.3 6.7 15 15 15h44.3c8.3 0 15-6.7 15-15v-31c.1-8.1-6.5-14.7-14.6-14.7z"/><path
fill="#FFF" d="M653.5 437.2c-2.9 0-5.2-2.3-5.2-5.2v-23.6c0-2.9 2.3-5.2 5.2-5.2 2.9 0 5.2 2.3 5.2
5.2V432c0 2.9-2.3 5.2-5.2 5.2z"/><path fill="#D1D3D4" d="M653.5 428.2c-2.9 0-5.2-2.3-5.2-5.2v9c0 2.9
2.3 5.2 5.2 5.2 2.9 0 5.2-2.3 5.2-5.2v-9c0 2.9-2.3 5.2-5.2 5.2z"/><path fill="#00A58C" d="M631
557.5h45V580h-45zM631 516h45v22.5h-45zM631 474.5h45V497h-45zM631 342h45v22.5h-45z"/><path
fill="#A72973" d="M675.7 445.7c8.3 0 15-6.7 15-15v-31c0-8.1-6.6-14.7-14.7-14.7v.4c5.4 1.4 9.5 6.3
9.5 12.2v26.7c0 7.1-5.8 12.9-12.9 12.9h-38.1c-7.1 0-12.9-5.8-12.9-12.9v-26.7c0-5.9 4-10.8
9.5-12.2v-.4c-8.1 0-14.7 6.6-14.7 14.7v31c0 8.3 6.7 15 15 15h44.3z"/></g></g></g></switch></svg> -->

<svg xmlns="http://www.w3.org/2000/svg" width="128" height="128" xml:space="preserve"><path fill="#282D33" d="m57.809 122.615-6.639-6.727 2.847-2.811 3.792 3.843 45.462-46.055c6.942-7.031 9.813-17.035 7.679-26.759l3.907-.857c2.427 11.053-.841 22.427-8.739 30.428l-48.309 48.938zM18.852 83.155l-9.358-9.478c-12.658-12.826-12.658-33.697 0-46.527l.46-.462c6.136-6.215 14.305-9.643 22.997-9.643s16.862 3.428 23.005 9.65l1.854 1.878 1.852-1.878c8.004-8.105 19.366-11.393 30.406-8.791l-.919 3.896c-9.665-2.277-19.627.603-26.641 7.707l-4.7 4.763-4.701-4.764c-5.385-5.455-12.544-8.459-20.157-8.459-7.614 0-14.772 3.005-20.157 8.459l-.46.462C1.212 41.24 1.211 59.591 12.34 70.866l9.357 9.478-2.845 2.811z"/><g><path fill="#282D33" d="M18.251 63.912c-7.805-7.91-7.804-20.782.002-28.693l.427-.43c3.806-3.854 8.859-5.979 14.224-5.979v4.001c-4.287 0-8.329 1.702-11.382 4.793l-.426.43c-6.272 6.356-6.273 16.708.003 23.068l-2.848 2.81z"/></g><g><path fill="#282D33" d="m14.203 118.792 7.391-31.723 1.941-1.967 2.847 2.811-1.147 1.162-5.77 24.765 25.907-4.405 1.092-1.108 2.848 2.811-1.999 2.024z"/><path fill="#282D33" d="m93.07 19.179 21.293 21.568-66.258 67.108-21.294-21.567L93.07 19.179m0-5.604L21.278 86.288l26.827 27.172 71.791-72.713L93.07 13.575z"/><path fill="#282D33" d="m107.741 31.075 2.847 2.811-67.52 68.375-2.847-2.81zM100.18 23.412l2.847 2.811L35.515 94.62l-2.847-2.81zM121.632 37.715l-2.848-2.812 5.156-5.223c-.116-.302-.396-.797-.914-1.322l-17.754-17.976c-.5-.508-.972-.791-1.269-.918l-5.131 5.199-2.849-2.811 5.511-5.583c.563-.57 1.351-.886 2.219-.886 1.406 0 2.999.798 4.368 2.189l17.752 17.975c2.253 2.286 2.783 5.056 1.264 6.588l-5.505 5.58z"/><g><path fill="#282D33" d="m19.713 106.02 6.775 6.862-2.847 2.81-6.775-6.86z"/></g></g></svg>